<?xml version="1.0" encoding="UTF-8" standalone="no"?>
<svg
   viewBox="0 0 793.7007874015749 1122.5196850393702"
   width="793.7007874015749"
   height="1122.5196850393702"
   version="1.1"
   id="svg1708"
   sodipodi:docname="control-panel.svg"
   inkscape:version="1.2.2 (732a01da63, 2022-12-09)"
   xmlns:inkscape="http://www.inkscape.org/namespaces/inkscape"
   xmlns:sodipodi="http://sodipodi.sourceforge.net/DTD/sodipodi-0.dtd"
   xmlns:xlink="http://www.w3.org/1999/xlink"
   xmlns="http://www.w3.org/2000/svg"
   xmlns:svg="http://www.w3.org/2000/svg">
  <sodipodi:namedview
     id="namedview1710"
     pagecolor="#505050"
     bordercolor="#eeeeee"
     borderopacity="1"
     inkscape:showpageshadow="0"
     inkscape:pageopacity="0"
     inkscape:pagecheckerboard="0"
     inkscape:deskcolor="#505050"
     showgrid="false"
     inkscape:zoom="2.5247522"
     inkscape:cx="380.03729"
     inkscape:cy="521.23927"
     inkscape:window-width="2560"
     inkscape:window-height="1377"
     inkscape:window-x="1912"
     inkscape:window-y="1072"
     inkscape:window-maximized="1"
     inkscape:current-layer="g1706" />
  <desc
     id="desc1670">control-panel.dxf - scale = 1.000000, origin = (0.000000, 0.000000), method = manual</desc>
  <defs
     id="defs1684">
    <marker
       id="DistanceX"
       orient="auto"
       refX="0.0"
       refY="0.0"
       style="overflow:visible">
      <path
         d="M 3,-3 L -3,3 M 0,-5 L  0,5"
         style="stroke:#000000; stroke-width:0.5"
         id="path1672" />
    </marker>
    <pattern
       id="Hatch"
       patternUnits="userSpaceOnUse"
       width="8"
       height="8"
       x="0"
       y="0">
      <path
         d="M8 4 l-4,4"
         stroke="#000000"
         stroke-width="0.25"
         linecap="square"
         id="path1675" />
      <path
         d="M6 2 l-4,4"
         stroke="#000000"
         stroke-width="0.25"
         linecap="square"
         id="path1677" />
      <path
         d="M4 0 l-4,4"
         stroke="#000000"
         stroke-width="0.25"
         linecap="square"
         id="path1679" />
    </pattern>
    <symbol
       id="*MODEL_SPACE" />
    <symbol
       id="*PAPER_SPACE" />
  </defs>
  <g
     inkscape:groupmode="layer"
     inkscape:label="0"
     id="g1706">
    <path
       d="m 562.67718,625.5118 a 18.897638,18.897638 0 0 0 18.89763,-18.89764 V 515.9055 A 18.897638,18.897638 0 0 0 562.67718,497.00786 H 231.02363 A 18.897638,18.897638 0 0 0 212.126,515.9055 v 90.70866 a 18.897638,18.897638 0 0 0 18.89763,18.89764 z"
       style="fill:none;stroke:#000000"
       id="path1686" />
    <path
       style="fill:none;stroke:#000000"
       sodipodi:type="inkscape:offset"
       inkscape:radius="0"
       inkscape:original="M 231.02344 497.00781 A 18.897638 18.897638 0 0 0 212.12695 515.90625 L 212.12695 606.61328 A 18.897638 18.897638 0 0 0 231.02344 625.51172 L 562.67773 625.51172 A 18.897638 18.897638 0 0 0 581.57422 606.61328 L 581.57422 515.90625 A 18.897638 18.897638 0 0 0 562.67773 497.00781 L 231.02344 497.00781 z "
       xlink:href="#path1688"
       id="path1835"
       inkscape:href="#path1688"
       d="m 231.02344,497.00781 a 18.897638,18.897638 0 0 0 -18.89649,18.89844 v 90.70703 a 18.897638,18.897638 0 0 0 18.89649,18.89844 h 331.65429 a 18.897638,18.897638 0 0 0 18.89649,-18.89844 v -90.70703 a 18.897638,18.897638 0 0 0 -18.89649,-18.89844 z"
       transform="matrix(0.96226611,0,0,0.91330803,14.974714,48.656716)" />
    <path
       d="M 212.126,606.61416 V 515.9055 a 18.897638,18.897638 0 0 1 18.89763,-18.89764 h 331.65355 a 18.897638,18.897638 0 0 1 18.89763,18.89764 v 90.70866 A 18.897638,18.897638 0 0 1 562.67718,625.5118 H 231.02363 A 18.897638,18.897638 0 0 1 212.126,606.61416 Z"
       style="fill:none;stroke:#000000"
       id="path1688" />
    <path
       style="fill:none;stroke:#000000"
       sodipodi:type="inkscape:offset"
       inkscape:radius="0"
       inkscape:original="M 529.13477 539.06836 A 22.204724 22.204724 0 0 0 506.92969 561.25977 A 22.204725 22.204725 0 0 0 551.33789 561.25977 A 22.204724 22.204724 0 0 0 529.13477 539.06836 z "
       xlink:href="#path1692"
       id="path1845"
       inkscape:href="#path1692"
       d="m 529.13477,539.06836 a 22.204724,22.204724 0 0 0 -22.20508,22.19141 22.204725,22.204725 0 0 0 44.4082,0 22.204724,22.204724 0 0 0 -22.20312,-22.19141 z"
       transform="matrix(1.2590486,0,0,1.2590486,-137.07136,-145.37369)" />
    <path
       d="m 551.33859,561.25983 a 22.204724,22.204724 0 0 0 -44.40944,0 22.204725,22.204725 0 0 0 44.40944,0 z"
       style="fill:none;stroke:#000000"
       id="path1692" />
    <path
       style="fill:none;stroke:#000000"
       sodipodi:type="inkscape:offset"
       inkscape:radius="0"
       inkscape:original="M 266.23828 531.33203 A 30.708662 30.708662 0 0 0 242.36133 561.25977 A 30.708662 30.708662 0 0 0 303.7793 561.25977 A 30.708662 30.708662 0 0 0 266.23828 531.33203 z "
       xlink:href="#path1694"
       id="path1837"
       inkscape:href="#path1694"
       d="m 266.23828,531.33203 a 30.708662,30.708662 0 0 0 -23.87695,29.92774 30.708985,30.708985 0 0 0 61.41797,0 30.708662,30.708662 0 0 0 -37.54102,-29.92774 z"
       transform="matrix(1.1794787,0,0,1.1794787,-49.010301,-100.73411)" />
    <path
       d="m 303.77954,561.25983 a 30.708662,30.708662 0 0 0 -61.41732,0 30.708662,30.708662 0 0 0 61.41732,0 z"
       style="fill:none;stroke:#000000"
       id="path1694" />
    <path
       style="fill:none;stroke:#000000"
       sodipodi:type="inkscape:offset"
       inkscape:radius="0"
       inkscape:original="M 341.95312 551.72266 A 9.543307 9.543307 0 0 0 332.41016 561.25977 A 9.543307 9.543307 0 0 0 351.49609 561.25977 A 9.543307 9.543307 0 0 0 341.95312 551.72266 z "
       xlink:href="#path1696"
       id="path1839"
       inkscape:href="#path1696"
       d="m 341.95312,551.72266 a 9.543307,9.543307 0 0 0 -9.54296,9.53711 9.543307,9.543307 0 0 0 19.08593,0 9.543307,9.543307 0 0 0 -9.54297,-9.53711 z"
       transform="matrix(1.4761277,0,0,1.4761277,-162.81334,-267.21354)" />
    <path
       d="m 351.49607,561.25983 a 9.543307,9.543307 0 0 0 -19.08661,0 9.543307,9.543307 0 0 0 19.08661,0 z"
       style="fill:none;stroke:#000000"
       id="path1696" />
    <path
       style="fill:none;stroke:#000000"
       sodipodi:type="inkscape:offset"
       inkscape:radius="0"
       inkscape:original="M 427.08594 522.51953 L 427.08594 600 L 472.44141 600 L 472.44141 522.51953 L 427.08594 522.51953 z "
       xlink:href="#path1700"
       id="path1843"
       inkscape:href="#path1700"
       d="M 427.08594,522.51953 V 600 h 45.35547 v -77.48047 z"
       transform="matrix(1.3036883,0,0,1.1563559,-136.58797,-87.756272)" />
    <path
       d="m 427.08663,522.51968 h 45.35433 v 77.48031 h -45.35433 z"
       style="fill:none;stroke:#000000"
       id="path1700" />
    <path
       style="fill:none;stroke:#000000"
       sodipodi:type="inkscape:offset"
       inkscape:radius="0"
       inkscape:original="M 379.74805 551.72266 A 9.543307 9.543307 0 0 0 370.20508 561.25977 A 9.543307 9.543307 0 0 0 389.29102 561.25977 A 9.543307 9.543307 0 0 0 379.74805 551.72266 z "
       xlink:href="#path1704"
       id="path1841"
       inkscape:href="#path1704"
       d="m 379.74805,551.72266 a 9.543307,9.543307 0 0 0 -9.54297,9.53711 9.543307,9.543307 0 0 0 19.08594,0 9.543307,9.543307 0 0 0 -9.54297,-9.53711 z"
       transform="matrix(1.4740814,0,0,1.4740814,-180.03149,-266.06529)" />
    <path
       d="m 389.29135,561.25983 a 9.543307,9.543307 0 0 0 -19.08661,0 9.543307,9.543307 0 0 0 19.08661,0 z"
       style="fill:none;stroke:#000000"
       id="path1704" />
    <text
       xml:space="preserve"
       style="font-size:16px;font-family:sans-serif;-inkscape-font-specification:'sans-serif, Normal';fill:#000000;stroke:#000000;stroke-width:0"
       x="254.09375"
       y="614.39703"
       id="text1849"><tspan
         sodipodi:role="line"
         id="tspan1847"
         x="254.09375"
         y="614.39703">Feed</tspan></text>
    <text
       xml:space="preserve"
       style="font-style:normal;font-variant:normal;font-weight:normal;font-stretch:normal;font-size:13.3333px;font-family:sans-serif;-inkscape-font-specification:'sans-serif, Normal';font-variant-ligatures:normal;font-variant-caps:normal;font-variant-numeric:normal;font-variant-east-asian:normal;fill:#000000;stroke:#000000;stroke-width:0"
       x="327.51306"
       y="590.02802"
       id="text1853"><tspan
         sodipodi:role="line"
         id="tspan1851"
         x="327.51306"
         y="590.02802">RDY</tspan></text>
    <text
       xml:space="preserve"
       style="font-style:normal;font-variant:normal;font-weight:normal;font-stretch:normal;font-size:13.3333px;font-family:sans-serif;-inkscape-font-specification:'sans-serif, Normal';font-variant-ligatures:normal;font-variant-caps:normal;font-variant-numeric:normal;font-variant-east-asian:normal;fill:#000000;stroke:#000000;stroke-width:0"
       x="363.82361"
       y="590.02802"
       id="text1857"><tspan
         sodipodi:role="line"
         id="tspan1855"
         x="363.82361"
         y="590.02802">PWR</tspan></text>
    <text
       xml:space="preserve"
       style="font-size:16px;font-family:sans-serif;-inkscape-font-specification:'sans-serif, Normal';fill:#000000;stroke:#000000;stroke-width:0"
       x="498.15723"
       y="614.27203"
       id="text1861"><tspan
         sodipodi:role="line"
         id="tspan1859"
         x="498.15723"
         y="614.27203">12V DC</tspan></text>
    <text
       xml:space="preserve"
       style="font-style:normal;font-variant:normal;font-weight:normal;font-stretch:normal;font-size:16px;font-family:sans-serif;-inkscape-font-specification:'sans-serif, Normal';font-variant-ligatures:normal;font-variant-caps:normal;font-variant-numeric:normal;font-variant-east-asian:normal;fill:#000000;stroke:#000000;stroke-width:0"
       x="321.9617"
       y="527.52942"
       id="text1865"><tspan
         sodipodi:role="line"
         id="tspan1863"
         x="321.9617"
         y="527.52942">cat-feeder</tspan></text>
  </g>
</svg>
